#Comment line ignore any data following # character 
#Hierarchical Translation and Rotation (.htr) file 
[Header]	
#Header keywords are followed by a single value 
FileType HTR		#Single word string
DataType HTRS		#Translation followed by rotation and scale data
FileVersion 1		#integer
NumSegments 25		#integer
NumFrames 6		#integer
DataFrameRate 30		#integer, data frame rate in this file
EulerRotationOrder ZYX
CalibrationUnits mm
RotationUnits Degrees
GlobalAxisofGravity Y
BoneLengthAxis Y
ScaleFactor 1.00
[SegmentNames&Hierarchy]
#CHILD	PARENT
BN_Tick_Root GLOBAL
BN_Torso BN_Tick_Root
BN_L_Leg_Front01 BN_Torso
BN_L_Leg_Rear01 BN_Torso
BN_MetalTop BN_Torso
BN_Neck BN_Torso
BN_R_Leg_Front01 BN_Torso
BN_R_Leg_Rear01 BN_Torso
BN_Sack BN_Torso
BN_L_Leg_Front02 BN_L_Leg_Front01
BN_L_Leg_Front03 BN_L_Leg_Front02
BN_L_Leg_Rear02 BN_L_Leg_Rear01
BN_L_Leg_Rear03 BN_L_Leg_Rear02
BN_Head BN_Neck
BN_Needle BN_Head
BN_R_Leg_Front02 BN_R_Leg_Front01
BN_R_Leg_Front03 BN_R_Leg_Front02
BN_R_Leg_Rear02 BN_R_Leg_Rear01
BN_R_Leg_Rear03 BN_R_Leg_Rear02
BN_SackDef01 BN_Sack
BN_SackDef02 BN_Sack
BN_SackDef03 BN_Sack
BN_SackDef04 BN_Sack
BN_SackDef05 BN_Sack
BN_SackDef06 BN_Sack
[BasePosition]
#SegmentName Tx, Ty, Tz, Rx, Ry, Rz, BoneLength
BN_Tick_Root 0.000000 0.000000 0.000000 -90.000000 0.000000 0.000000 10.000000 
BN_Torso 0.000000 0.000000 0.000000 0.000000 0.000000 0.000000 10.000000 
BN_L_Leg_Front01 0.000000 0.000000 0.000000 0.000000 0.000000 0.000000 10.000000 
BN_L_Leg_Rear01 0.000000 0.000000 0.000000 0.000000 0.000000 0.000000 10.000000 
BN_MetalTop 0.000000 0.000000 0.000000 0.000000 0.000000 0.000000 10.000000 
BN_Neck 0.000000 0.000000 0.000000 0.000000 0.000000 0.000000 10.000000 
BN_R_Leg_Front01 0.000000 0.000000 0.000000 0.000000 0.000000 0.000000 10.000000 
BN_R_Leg_Rear01 0.000000 0.000000 0.000000 0.000000 0.000000 0.000000 10.000000 
BN_Sack 0.000000 0.000000 0.000000 0.000000 0.000000 0.000000 10.000000 
BN_L_Leg_Front02 0.000000 0.000000 0.000000 0.000000 0.000000 0.000000 10.000000 
BN_L_Leg_Front03 0.000000 0.000000 0.000000 0.000000 0.000000 0.000000 10.000000 
BN_L_Leg_Rear02 0.000000 0.000000 0.000000 0.000000 0.000000 0.000000 10.000000 
BN_L_Leg_Rear03 0.000000 0.000000 0.000000 0.000000 0.000000 0.000000 10.000000 
BN_Head 0.000000 0.000000 0.000000 0.000000 0.000000 0.000000 10.000000 
BN_Needle 0.000000 0.000000 0.000000 0.000000 0.000000 0.000000 10.000000 
BN_R_Leg_Front02 0.000000 0.000000 0.000000 0.000000 0.000000 0.000000 10.000000 
BN_R_Leg_Front03 0.000000 0.000000 0.000000 0.000000 0.000000 0.000000 10.000000 
BN_R_Leg_Rear02 0.000000 0.000000 0.000000 0.000000 0.000000 0.000000 10.000000 
BN_R_Leg_Rear03 0.000000 0.000000 0.000000 0.000000 0.000000 0.000000 10.000000 
BN_SackDef01 0.000000 0.000000 0.000000 0.000000 0.000000 0.000000 10.000000 
BN_SackDef02 0.000000 0.000000 0.000000 0.000000 0.000000 0.000000 10.000000 
BN_SackDef03 0.000000 0.000000 0.000000 0.000000 0.000000 0.000000 10.000000 
BN_SackDef04 0.000000 0.000000 0.000000 0.000000 0.000000 0.000000 10.000000 
BN_SackDef05 0.000000 0.000000 0.000000 0.000000 0.000000 0.000000 10.000000 
BN_SackDef06 0.000000 0.000000 0.000000 0.000000 0.000000 0.000000 10.000000 
#Beginning of Data. Separated by tabs
#Fr	Tx	Ty	Tz	Rx	Ry	Rz	SF
[BN_Tick_Root]
79 0.000000 0.000000 0.000000 0.000000 0.000000 -0.000020 0.000000
80 0.000000 0.000000 0.000000 0.000000 0.000000 -0.000020 0.000000
81 0.000000 0.000000 0.000000 0.000000 0.000000 -0.000020 0.000000
82 0.000000 0.000000 0.000000 0.000000 0.000000 -0.000020 0.000000
83 0.000000 0.000000 0.000000 0.000000 0.000000 -0.000020 0.000000
84 0.000000 0.000000 0.000000 0.000000 0.000000 -0.000020 0.000000
[BN_Torso]
79 10.022041 39.357197 206.720535 -21.311951 -3.391006 -1.258029 210.672287
80 10.022041 35.583813 206.720535 -21.312223 -3.390433 0.861579 210.000061
81 10.022041 31.810831 206.720535 -21.312483 -3.389851 2.980977 209.393768
82 10.022041 31.810831 206.720535 -21.316677 -3.390615 3.171379 209.393768
83 10.022041 31.810831 206.720535 -21.320868 -3.391365 3.361780 209.393768
84 10.022041 31.810831 206.720535 -21.325064 -3.392102 3.552183 209.393768
[BN_L_Leg_Front01]
79 -68.477791 10.734189 -26.804373 -70.501183 36.407093 136.881851 74.316254
80 -68.477791 10.734189 -26.804373 -69.330528 35.177170 134.659134 74.316254
81 -68.477791 10.734189 -26.804373 -68.121277 33.986061 132.440796 74.316254
82 -68.477791 10.734189 -26.804373 -68.041100 33.918694 132.279053 74.316254
83 -68.477791 10.734189 -26.804373 -67.960732 33.851498 132.117310 74.316254
84 -68.477791 10.734189 -26.804373 -67.880203 33.784485 131.955551 74.316254
[BN_L_Leg_Rear01]
79 -72.133743 -73.994843 -18.268616 25.444735 63.335835 -160.820435 104.939293
80 -72.133743 -73.994843 -18.268616 24.409412 62.392097 -165.073120 104.939293
81 -72.133743 -73.994843 -18.268616 23.555836 61.417542 -169.153992 104.939293
82 -72.133743 -73.994843 -18.268616 23.538759 61.320259 -169.423721 104.939293
83 -72.133743 -73.994843 -18.268616 23.522676 61.222919 -169.692566 104.939293
84 -72.133743 -73.994843 -18.268616 23.507599 61.125549 -169.960526 104.939293
[BN_MetalTop]
79 0.000008 13.737477 26.403606 92.251350 -17.585705 -97.417923 29.763546
80 0.000008 13.737477 26.403606 92.251366 -17.585705 -97.417938 29.763546
81 0.000008 13.737477 26.403606 92.251366 -17.585709 -97.417938 29.763546
82 0.000008 13.737477 26.403606 92.251366 -17.585709 -97.417938 29.763546
83 0.000008 13.737477 26.403606 92.251366 -17.585709 -97.417938 29.763546
84 0.000008 13.737477 26.403606 92.251366 -17.585709 -97.417938 29.763546
[BN_Neck]
79 0.000014 95.233284 10.002091 -89.999672 -65.297531 89.999657 95.757088
80 0.000014 95.233284 10.002091 -89.999672 -65.297531 89.999657 95.757088
81 0.000014 95.233284 10.002091 -89.999672 -65.297531 89.999657 95.757088
82 0.000014 95.233284 10.002091 -89.999672 -65.297531 89.999657 95.757088
83 0.000014 95.233284 10.002091 -89.999672 -65.297531 89.999657 95.757088
84 0.000014 95.233284 10.002091 -89.999672 -65.297531 89.999657 95.757088
[BN_R_Leg_Front01]
79 68.477768 10.734107 -26.804314 73.506279 42.133896 56.939335 74.316193
80 68.477768 10.734107 -26.804314 74.190933 42.490944 55.590816 74.316193
81 68.477768 10.734107 -26.804314 74.867714 42.859676 54.240826 74.316193
82 68.477768 10.734107 -26.804314 74.956482 42.940792 54.089397 74.316193
83 68.477768 10.734107 -26.804314 75.045082 43.022079 53.937935 74.316193
84 68.477768 10.734107 -26.804314 75.133507 43.103535 53.786442 74.316193
[BN_R_Leg_Rear01]
79 72.133751 -73.994873 -18.268644 15.420679 73.498543 34.728298 104.939331
80 72.133751 -73.994873 -18.268644 18.706848 74.418396 35.474953 104.939331
81 72.133751 -73.994873 -18.268644 22.237120 75.323685 36.472900 104.939331
82 72.133751 -73.994873 -18.268644 22.428753 75.430656 36.349323 104.939331
83 72.133751 -73.994873 -18.268644 22.620871 75.537788 36.226280 104.939331
84 72.133751 -73.994873 -18.268644 22.813446 75.644943 36.103752 104.939331
[BN_Sack]
79 -0.000000 -78.024918 33.657791 91.379875 -11.014523 -97.199577 84.974907
80 -0.000000 -78.024918 33.657791 91.379875 -11.014523 -97.199577 84.974907
81 -0.000000 -78.024918 33.657791 91.379875 -11.014523 -97.199577 84.974907
82 -0.000000 -78.024918 33.657791 91.379875 -11.014523 -97.199577 84.974907
83 -0.000000 -78.024918 33.657791 91.379875 -11.014523 -97.199577 84.974907
84 -0.000000 -78.024918 33.657791 91.379875 -11.014524 -97.199577 84.974907
[BN_L_Leg_Front02]
79 142.805023 -0.000015 -0.000104 0.098582 0.556625 -117.863533 142.805023
80 142.805023 -0.000015 -0.000104 0.106261 0.538090 -116.103477 142.805023
81 142.805023 -0.000015 -0.000104 0.113365 0.519334 -114.344032 142.805023
82 142.805023 -0.000015 -0.000104 0.113817 0.518584 -114.276817 142.805023
83 142.805023 -0.000015 -0.000104 0.114269 0.517834 -114.209595 142.805023
84 142.805023 -0.000015 -0.000104 0.114720 0.517083 -114.142372 142.805023
[BN_L_Leg_Front03]
79 124.143021 -0.000045 0.000007 0.353269 -0.363157 126.035461 124.143021
80 124.143021 -0.000045 0.000007 0.352673 -0.369627 124.531372 124.143021
81 124.143021 -0.000045 0.000007 0.353842 -0.378070 122.927452 124.143021
82 124.143021 -0.000045 0.000007 0.353613 -0.378115 122.865433 124.143021
83 124.143021 -0.000045 0.000007 0.353383 -0.378161 122.803413 124.143021
84 124.143021 -0.000045 0.000007 0.353154 -0.378207 122.741409 124.143021
[BN_L_Leg_Rear02]
79 139.939041 0.000075 -0.000022 0.086563 -0.220272 92.902367 139.939041
80 139.939041 0.000075 -0.000022 0.083260 -0.222209 93.991638 139.939041
81 139.939041 0.000075 -0.000022 0.079921 -0.224083 95.080681 139.939041
82 139.939041 0.000075 -0.000022 0.080543 -0.225516 95.088058 139.939041
83 139.939041 0.000075 -0.000022 0.081165 -0.226950 95.095413 139.939041
84 139.939041 0.000075 -0.000022 0.081787 -0.228384 95.102783 139.939041
[BN_L_Leg_Rear03]
79 142.839615 0.000179 -0.000060 0.000434 -0.002307 -111.291519 142.839615
80 142.839615 0.000179 -0.000060 0.000460 -0.002302 -112.612480 142.839615
81 142.839615 0.000179 -0.000060 0.000484 -0.002297 -113.779434 142.839615
82 142.839615 0.000179 -0.000060 0.000484 -0.002297 -113.787109 142.839615
83 142.839615 0.000179 -0.000060 0.000484 -0.002297 -113.794800 142.839615
84 142.839615 0.000179 -0.000060 0.000484 -0.002297 -113.802460 142.839615
[BN_Head]
79 57.062447 -0.000030 0.000000 8.223325 -2.295153 -10.194156 57.062447
80 57.062447 -0.000030 0.000000 4.693130 1.818865 -9.368413 57.062447
81 57.062447 -0.000030 0.000000 1.205586 5.975512 -8.794628 57.062447
82 57.062447 -0.000030 0.000000 -0.747601 8.986746 -8.254855 57.062447
83 57.062447 -0.000030 0.000000 -0.449574 8.508261 -9.324106 57.062447
84 57.062447 -0.000030 0.000000 -0.142988 8.035417 -10.394462 57.062447
[BN_Needle]
79 33.915161 69.677544 -0.000060 0.000003 0.000030 87.896805 77.493217
80 33.915161 69.677544 -0.000060 0.000003 0.000030 87.896805 77.493217
81 33.915161 69.677544 -0.000060 0.000003 0.000030 87.896805 77.493217
82 33.915161 69.677544 -0.000060 0.000003 0.000030 87.896805 77.493217
83 33.915161 69.677544 -0.000060 0.000003 0.000030 87.896805 77.493217
84 33.915161 69.677544 -0.000060 0.000003 0.000030 87.896805 77.493217
[BN_R_Leg_Front02]
79 142.804947 -0.000060 0.000060 -0.069807 0.619672 123.371536 142.804947
80 142.804947 -0.000060 0.000060 -0.071720 0.615756 122.994812 142.804947
81 142.804947 -0.000060 0.000060 -0.073606 0.611827 122.618111 142.804947
82 142.804947 -0.000060 0.000060 -0.073039 0.612544 122.687340 142.804947
83 142.804947 -0.000060 0.000060 -0.072472 0.613259 122.756584 142.804947
84 142.804947 -0.000060 0.000060 -0.071904 0.613974 122.825821 142.804947
[BN_R_Leg_Front03]
79 124.143005 -0.000060 -0.000156 -0.354747 -0.341312 -130.603409 124.143005
80 124.143005 -0.000060 -0.000156 -0.354842 -0.342568 -130.301987 124.143005
81 124.143005 -0.000060 -0.000156 -0.354943 -0.343823 -130.000626 124.143005
82 124.143005 -0.000060 -0.000156 -0.354567 -0.343547 -130.056244 124.143005
83 124.143005 -0.000060 -0.000156 -0.354192 -0.343271 -130.111847 124.143005
84 124.143005 -0.000060 -0.000156 -0.353817 -0.342993 -130.167435 124.143005
[BN_R_Leg_Rear02]
79 139.939011 -0.000149 0.000015 0.000921 -0.246851 -119.417679 139.939011
80 139.939011 -0.000149 0.000015 0.003311 -0.245411 -120.145721 139.939011
81 139.939011 -0.000149 0.000015 0.005683 -0.243942 -120.873627 139.939011
82 139.939011 -0.000149 0.000015 0.005586 -0.245047 -120.855415 139.939011
83 139.939011 -0.000149 0.000015 0.005489 -0.246152 -120.837212 139.939011
84 139.939011 -0.000149 0.000015 0.005392 -0.247257 -120.819000 139.939011
[BN_R_Leg_Rear03]
79 142.839417 0.000075 0.000119 0.002152 -0.000937 137.029968 142.839417
80 142.839417 0.000075 0.000119 0.002148 -0.000947 137.589310 142.839417
81 142.839417 0.000075 0.000119 0.002143 -0.000957 138.148560 142.839417
82 142.839417 0.000075 0.000119 0.002143 -0.000957 138.135330 142.839417
83 142.839417 0.000075 0.000119 0.002143 -0.000957 138.122086 142.839417
84 142.839417 0.000075 0.000119 0.002143 -0.000957 138.108841 142.839417
[BN_SackDef01]
79 249.782272 -3.760844 42.949425 -128.408218 -44.374973 -11.740845 253.475800
80 249.782272 -3.760844 42.949425 -128.408218 -44.374973 -11.740845 253.475800
81 249.782272 -3.760844 42.949425 -128.408218 -44.374973 -11.740845 253.475800
82 249.782272 -3.760844 42.949425 -128.408218 -44.374973 -11.740845 253.475800
83 249.782272 -3.760844 42.949425 -128.408218 -44.374973 -11.740845 253.475800
84 249.782272 -3.760844 42.949425 -128.408218 -44.374973 -11.740845 253.475800
[BN_SackDef02]
79 138.789795 -62.131748 45.674385 32.077126 -27.375721 -88.781525 158.773758
80 138.789795 -62.131748 45.674385 32.077126 -27.375721 -88.781525 158.773758
81 138.789795 -62.131748 45.674385 32.077126 -27.375721 -88.781525 158.773758
82 138.789795 -62.131748 45.674385 32.077126 -27.375721 -88.781525 158.773758
83 138.789795 -62.131748 45.674385 32.077126 -27.375721 -88.781525 158.773758
84 138.789795 -62.131748 45.674385 32.077126 -27.375721 -88.781525 158.773758
[BN_SackDef03]
79 249.782272 -3.760785 -42.949661 18.144459 44.375008 -11.740894 253.475845
80 249.782272 -3.760785 -42.949661 18.144459 44.375008 -11.740894 253.475845
81 249.782272 -3.760785 -42.949661 18.144459 44.375008 -11.740894 253.475845
82 249.782272 -3.760785 -42.949661 18.144459 44.375008 -11.740894 253.475845
83 249.782272 -3.760785 -42.949661 18.144459 44.375008 -11.740894 253.475845
84 249.782272 -3.760785 -42.949661 18.144459 44.375008 -11.740894 253.475845
[BN_SackDef04]
79 138.789780 -62.131645 -45.674473 146.059982 27.375723 -88.781555 158.773743
80 138.789780 -62.131645 -45.674473 146.059982 27.375723 -88.781555 158.773743
81 138.789780 -62.131645 -45.674473 146.059982 27.375723 -88.781555 158.773743
82 138.789780 -62.131645 -45.674473 146.059982 27.375723 -88.781555 158.773743
83 138.789780 -62.131645 -45.674473 146.059982 27.375723 -88.781555 158.773743
84 138.789780 -62.131645 -45.674473 146.059982 27.375723 -88.781555 158.773743
[BN_SackDef05]
79 118.790161 46.167137 -63.831196 0.155741 51.314110 90.605110 142.537460
80 118.790161 46.167137 -63.831196 0.155741 51.314110 90.605110 142.537460
81 118.790161 46.167137 -63.831196 0.155741 51.314110 90.605110 142.537460
82 118.790161 46.167137 -63.831196 0.155741 51.314110 90.605110 142.537460
83 118.790161 46.167137 -63.831196 0.155741 51.314110 90.605110 142.537460
84 118.790161 46.167137 -63.831196 0.155741 51.314110 90.605110 142.537460
[BN_SackDef06]
79 118.790207 46.167194 63.831219 152.058487 -51.314072 90.605019 142.537537
80 118.790207 46.167194 63.831219 152.058487 -51.314072 90.605019 142.537537
81 118.790207 46.167194 63.831219 152.058487 -51.314072 90.605019 142.537537
82 118.790207 46.167194 63.831219 152.058487 -51.314072 90.605019 142.537537
83 118.790207 46.167194 63.831219 152.058487 -51.314072 90.605019 142.537537
84 118.790207 46.167194 63.831219 152.058487 -51.314072 90.605019 142.537537
